<?xml version="1.0" standalone="no"?>
<!DOCTYPE svg PUBLIC "-//W3C//DTD SVG 20010904//EN"
 "http://www.w3.org/TR/2001/REC-SVG-20010904/DTD/svg10.dtd">
<svg version="1.0" xmlns="http://www.w3.org/2000/svg"
 width="1056.000000pt" height="992.000000pt" viewBox="0 0 1056.000000 992.000000"
 preserveAspectRatio="xMidYMid meet">

<g transform="translate(0.000000,992.000000) scale(0.100000,-0.100000)"
fill="#000000" stroke="none">
<path d="M4805 9311 c-39 -16 -53 -49 -119 -286 -90 -321 -85 -305 -106 -305
-33 0 -300 -71 -413 -110 -62 -21 -166 -61 -231 -89 l-119 -50 -217 173 c-119
95 -227 179 -239 186 -13 6 -37 9 -53 6 -17 -3 -162 -104 -337 -234 -168 -125
-330 -245 -358 -266 -66 -47 -93 -81 -93 -115 1 -14 47 -145 104 -291 l102
-265 -56 -65 c-135 -154 -292 -372 -385 -532 -38 -67 -40 -68 -80 -67 -22 0
-148 4 -279 8 -156 6 -249 5 -268 -1 -17 -6 -36 -24 -47 -47 -31 -60 -271
-835 -271 -872 0 -24 7 -42 22 -56 13 -11 120 -84 238 -163 118 -78 222 -149
231 -156 13 -12 14 -26 6 -91 -10 -90 -2 -605 11 -675 l9 -46 -241 -164 c-172
-116 -245 -172 -255 -193 -14 -29 -8 -49 129 -458 79 -236 150 -437 157 -447
23 -33 70 -37 357 -28 153 5 283 7 290 5 6 -3 35 -43 64 -90 68 -112 214 -307
309 -414 l76 -85 -102 -272 c-56 -149 -102 -282 -101 -297 0 -15 13 -37 33
-56 46 -44 691 -510 732 -530 32 -15 38 -15 67 -1 18 9 127 93 243 187 115 94
213 171 218 171 5 0 49 -18 98 -39 l89 -40 0 267 0 267 -99 51 c-306 160 -623
404 -844 649 -485 538 -743 1181 -764 1902 -23 813 274 1556 857 2143 338 340
724 581 1170 730 337 113 640 156 1020 147 447 -11 825 -103 1225 -297 785
-382 1377 -1107 1581 -1935 65 -265 78 -384 78 -710 0 -328 -14 -453 -80 -716
-204 -813 -752 -1507 -1497 -1895 l-128 -66 2 -264 c1 -145 5 -264 8 -264 3 0
46 18 96 38 l89 38 225 -183 c202 -164 229 -183 262 -183 39 0 100 41 569 383
208 152 230 172 230 212 0 17 -45 151 -100 298 l-100 267 81 93 c100 112 213
264 295 394 l62 98 149 -2 c81 -2 219 -5 305 -9 l158 -6 28 29 c22 22 56 110
165 433 76 223 140 421 143 441 9 52 -15 74 -271 247 l-220 150 1 38 c0 22 6
125 13 231 8 140 9 237 1 364 -5 95 -7 175 -2 178 4 3 111 75 237 160 127 84
236 159 244 166 7 7 13 28 13 46 -1 49 -250 854 -277 896 -20 30 -80 44 -162
38 -37 -2 -158 -7 -269 -10 l-200 -6 -67 113 c-85 142 -219 331 -317 444 -41
48 -79 92 -84 99 -6 8 27 106 93 280 55 147 101 279 101 294 0 34 -31 64 -180
172 -63 45 -220 161 -348 256 -129 95 -245 176 -259 179 -13 4 -34 2 -46 -3
-12 -6 -116 -86 -232 -178 -115 -93 -215 -172 -221 -177 -7 -5 -41 6 -88 27
-164 74 -404 153 -606 198 l-103 24 -74 264 c-41 145 -81 274 -89 287 -8 12
-26 27 -40 32 -31 12 -920 12 -949 1z"/>
<path d="M5182 7959 c-77 -13 -155 -53 -222 -116 -170 -157 -182 -423 -26
-604 42 -50 50 -102 32 -206 -19 -104 -56 -201 -111 -283 -55 -82 -73 -95
-163 -114 -125 -26 -227 -94 -291 -194 -72 -115 -82 -289 -24 -415 78 -166
236 -256 430 -245 152 9 289 103 355 244 61 130 47 323 -32 429 -16 22 -37 50
-46 63 -36 50 -35 158 3 277 25 81 94 206 138 251 34 35 51 44 112 57 103 23
160 53 229 122 69 69 107 141 125 237 42 229 -125 459 -361 497 -73 12 -74 12
-148 0z"/>
<path d="M5811 7795 c37 -77 61 -191 58 -269 l-3 -60 121 -42 c320 -110 615
-295 849 -531 l112 -112 60 9 c149 24 371 -52 474 -162 15 -17 28 -26 28 -22
-1 14 -120 197 -189 290 -80 108 -286 321 -411 426 -306 256 -686 438 -1111
532 -14 3 -11 -8 12 -59z"/>
<path d="M4620 7820 c-340 -92 -677 -261 -940 -470 -47 -37 -93 -77 -103 -87
-17 -19 -16 -20 25 -32 72 -21 155 -71 221 -131 l62 -57 78 59 c167 127 416
260 598 318 l99 32 0 85 c0 108 22 194 78 306 5 10 0 9 -118 -23z"/>
<path d="M3301 7074 c-212 -57 -348 -266 -313 -481 31 -188 174 -332 362 -363
123 -21 264 22 361 108 26 23 59 46 73 52 75 28 237 -1 381 -69 l84 -39 11 51
c6 29 22 76 35 105 14 30 25 58 25 63 0 5 -20 9 -44 9 -94 0 -308 81 -384 145
-23 19 -37 45 -53 98 -29 97 -52 141 -107 199 -109 117 -275 164 -431 122z"/>
<path d="M5547 7014 c-67 -22 -165 -91 -210 -150 -63 -83 -81 -143 -81 -264 0
-131 20 -189 99 -280 70 -81 81 -118 66 -224 -21 -149 -101 -329 -165 -371
-14 -9 -51 -23 -83 -32 -178 -46 -308 -185 -332 -355 -27 -192 71 -372 248
-457 73 -35 80 -36 186 -36 103 0 114 2 178 32 265 126 338 458 148 677 -54
63 -61 81 -61 170 0 135 69 335 142 407 25 26 49 37 93 47 166 34 288 149 329
307 54 206 -40 413 -230 506 -63 31 -76 34 -174 36 -71 1 -120 -3 -153 -13z"/>
<path d="M6996 6619 c-78 -11 -170 -55 -234 -112 -63 -56 -113 -71 -203 -63
-81 7 -222 47 -291 82 -27 14 -51 24 -52 22 -2 -2 -8 -30 -15 -63 -8 -33 -22
-77 -32 -97 -26 -51 -24 -58 15 -58 56 0 227 -48 301 -84 93 -46 132 -88 151
-162 54 -204 218 -334 424 -334 395 0 587 481 300 754 -101 96 -224 135 -364
115z"/>
<path d="M2894 6272 c-61 -142 -122 -383 -150 -592 -23 -166 -23 -470 0 -640
106 -786 547 -1447 1249 -1869 l37 -23 0 45 c0 72 -37 266 -70 370 l-31 96
-77 64 c-427 357 -695 863 -753 1423 -14 143 -7 408 16 551 13 82 50 236 92
374 3 11 -17 26 -73 54 -57 28 -98 58 -151 111 l-73 73 -16 -37z"/>
<path d="M3260 5585 c0 -218 73 -511 179 -723 95 -190 181 -314 371 -537 249
-291 359 -471 439 -715 76 -233 83 -309 90 -887 l6 -492 430 190 c237 105 630
278 875 385 245 108 475 209 511 226 l66 30 7 86 c16 191 64 391 136 568 78
190 191 364 399 612 312 372 434 595 507 927 27 121 45 365 27 365 -21 0
-1167 -723 -1279 -806 -151 -113 -301 -297 -379 -468 -87 -188 -113 -352 -123
-771 l-7 -310 -226 -3 -226 -2 -7 37 c-3 21 -6 119 -6 218 -1 555 -61 801
-259 1060 -113 149 -199 217 -543 437 -293 187 -939 592 -968 608 -19 10 -20
8 -20 -35z"/>
<path d="M5570 2481 c-349 -152 -769 -336 -932 -407 l-298 -129 3 -250 c2
-246 2 -250 23 -248 11 1 247 102 525 223 568 250 1195 526 1282 564 l57 26 0
250 c0 194 -3 250 -12 249 -7 0 -299 -125 -648 -278z"/>
<path d="M6015 1893 c-104 -46 -347 -154 -540 -238 -192 -84 -480 -210 -640
-280 -159 -70 -292 -129 -294 -131 -6 -6 355 -355 383 -371 32 -19 675 -18
719 1 18 8 154 135 304 282 223 221 272 275 277 303 3 18 6 143 6 277 0 189
-3 244 -12 243 -7 0 -98 -39 -203 -86z"/>
</g>
</svg>
